<?xml version="1.0" encoding="UTF-8" standalone="no"?><!DOCTYPE svg PUBLIC "-//W3C//DTD SVG 1.1//EN" "http://www.w3.org/Graphics/SVG/1.1/DTD/svg11.dtd"><svg width="100%" height="100%" viewBox="0 0 116 139" version="1.1" xmlns="http://www.w3.org/2000/svg" xmlns:xlink="http://www.w3.org/1999/xlink" xml:space="preserve" xmlns:serif="http://www.serif.com/" style="fill-rule:evenodd;clip-rule:evenodd;stroke-linejoin:round;stroke-miterlimit:2;"><rect id="Artboard1" x="0" y="0" width="115.707" height="139" style="fill:none;"/><clipPath id="_clip1"><rect id="Artboard11" serif:id="Artboard1" x="0" y="0" width="115.707" height="139"/></clipPath><g clip-path="url(#_clip1)"><path id="back" d="M108.33,18.391c-12.912,-18.474 -38.414,-23.949 -56.851,-12.204l-32.379,20.635c-8.833,5.547 -14.93,14.567 -16.786,24.831c-1.548,8.569 -0.193,17.415 3.849,25.129c-2.771,4.203 -4.659,8.925 -5.55,13.88c-1.868,10.482 0.574,21.286 6.766,29.947c12.913,18.474 38.414,23.949 56.851,12.204l32.38,-20.548c8.821,-5.558 14.915,-14.573 16.786,-24.831c1.542,-8.567 0.183,-17.408 -3.862,-25.116c2.77,-4.206 4.662,-8.927 5.563,-13.881c1.861,-10.482 -0.579,-21.283 -6.767,-29.946" style="fill:#ff3e00;fill-rule:nonzero;"/><path id="front" d="M48.313,122.396c-10.417,2.704 -21.478,-1.4 -27.612,-10.242c-3.722,-5.207 -5.186,-11.703 -4.06,-18.003c0.183,-1.015 0.441,-2.015 0.77,-2.992l0.608,-1.862l1.664,1.241c3.824,2.792 8.093,4.916 12.627,6.282l1.241,0.36l-0.111,1.242c-0.12,1.702 0.359,3.393 1.353,4.78c1.851,2.66 5.182,3.893 8.318,3.079c0.702,-0.189 1.372,-0.482 1.987,-0.869l32.33,-20.635c1.605,-1.009 2.71,-2.652 3.042,-4.519c0.334,-1.901 -0.114,-3.859 -1.242,-5.426c-1.851,-2.66 -5.182,-3.892 -8.318,-3.079c-0.703,0.187 -1.373,0.48 -1.987,0.87l-12.415,7.883c-2.031,1.288 -4.246,2.259 -6.568,2.881c-10.399,2.687 -21.435,-1.41 -27.563,-10.231c-3.71,-5.211 -5.166,-11.705 -4.035,-18.002c1.108,-6.186 4.776,-11.626 10.094,-14.973l32.43,-20.635c2.018,-1.285 4.22,-2.256 6.53,-2.88c10.413,-2.705 21.472,1.399 27.6,10.242c3.726,5.205 5.195,11.701 4.072,18.003c-0.194,1.021 -0.451,2.028 -0.77,3.017l-0.62,1.862l-1.652,-1.241c-3.832,-2.813 -8.114,-4.954 -12.664,-6.332l-1.241,-0.36l0.112,-1.242c0.143,-1.71 -0.323,-3.417 -1.316,-4.817c-1.862,-2.614 -5.166,-3.809 -8.269,-2.992c-0.703,0.186 -1.373,0.479 -1.987,0.869l-32.392,20.597c-1.599,1.011 -2.703,2.647 -3.042,4.507c-0.327,1.905 0.12,3.864 1.242,5.438c1.842,2.635 5.139,3.865 8.256,3.079c0.701,-0.191 1.371,-0.484 1.987,-0.869l12.415,-7.871c2.029,-1.302 4.25,-2.278 6.581,-2.893c10.41,-2.711 21.471,1.388 27.599,10.23c3.724,5.206 5.193,11.701 4.073,18.003c-1.108,6.186 -4.776,11.626 -10.094,14.973l-32.392,20.635c-2.035,1.291 -4.253,2.267 -6.581,2.892" style="fill:#fff;fill-rule:nonzero;"/></g></svg>